<svg width="512" height="512" viewBox="0 0 512 512" fill="none" xmlns="http://www.w3.org/2000/svg" xmlns:xlink="http://www.w3.org/1999/xlink"><rect id="_r_8_" width="512" height="512" x="0" y="0" rx="0" fill="#F2F2F2" stroke="#FFFFFF" stroke-width="0" stroke-opacity="100%" paint-order="stroke"></rect><clipPath id="clip"><use xlink:href="#_r_8_"></use></clipPath><defs><linearGradient id="_r_9_" gradientUnits="userSpaceOnUse" gradientTransform="rotate(45)" style="transform-origin: center center;"><stop stop-color="#F2F2F2"></stop><stop offset="1" stop-color="#4A00E0"></stop></linearGradient><radialGradient id="_r_a_" cx="0" cy="0" r="1" gradientUnits="userSpaceOnUse" gradientTransform="translate(256) rotate(90) scale(512)"><stop stop-color="white"></stop><stop offset="1" stop-color="white" stop-opacity="0"></stop></radialGradient></defs><svg xmlns="http://www.w3.org/2000/svg" width="352" height="352" viewBox="0 0 32 32" x="80" y="80" alignment-baseline="middle" style="color: rgb(255, 255, 255); width: 352px; height: 352px;"><g fill="none"><path fill="#ffb02e" d="M15.999 29.998c9.334 0 13.999-6.268 13.999-14c0-7.73-4.665-13.998-14-13.998C6.665 2 2 8.268 2 15.999s4.664 13.999 13.999 13.999"></path><path fill="#402a32" d="M8.982 11.19c.048-.246.158-.55.367-.777c.18-.196.498-.413 1.15-.413c.643 0 .97.222 1.158.429c.218.24.323.545.358.742a1 1 0 0 0 1.97-.342a3.54 3.54 0 0 0-.85-1.747C12.563 8.452 11.696 8 10.5 8c-1.184 0-2.047.431-2.624 1.06c-.548.596-.769 1.293-.858 1.75a1 1 0 1 0 1.964.38m11 0c.048-.246.158-.55.367-.777c.18-.196.498-.413 1.151-.413c.642 0 .969.222 1.157.429c.219.24.324.545.358.742a1 1 0 0 0 1.97-.342a3.54 3.54 0 0 0-.85-1.747C23.563 8.452 22.696 8 21.5 8c-1.184 0-2.047.431-2.624 1.06c-.548.596-.769 1.293-.857 1.75a1 1 0 1 0 1.963.38"></path><path fill="#bb1d80" d="M16 25c-9 0-9-9-9-9h18s0 9-9 9"></path><path fill="#fff" d="M8 16.5V16h16v.5a1 1 0 0 1-1 1H9a1 1 0 0 1-1-1"></path></g></svg></svg>